# xmcd
#
# Track frame offsets: 
#        150
#        20720
#        39720
#        59857
#        77829
#        91467
#        107430
#        123577
#        139678
#        155369
#        172491
#        186710
#        203624
#
# Disc length: 2915 seconds
#
# Revision: 0
# Processed by: cddbd v1.5.2PL0 Copyright (c) Steve Scherf et al.
# Submitted via: ExactAudioCopy v1.3
#
DISCID=c30b610d
DTITLE=George Strait - Love Is Everything
DYEAR=2013
DGENRE=Country
TTITLE0=I Got A Car
TTITLE1=Give It All We Got Tonight
TTITLE2=Blue Melodies
TTITLE3=I Just Can't Go On Dying Like This
TTITLE4=I Thought I Heard My Heart Sing
TTITLE5=That's What Breaking Hearts Do
TTITLE6=When Love Comes Around Again
TTITLE7=The Night Is Young
TTITLE8=Sittin' On The Fence
TTITLE9=I Believe
TTITLE10=Love Is Everything
TTITLE11=You Don't Know What You're Missing
TTITLE12=When The Credits Roll
EXTD=
EXTT0=
EXTT1=
EXTT2=
EXTT3=
EXTT4=
EXTT5=
EXTT6=
EXTT7=
EXTT8=
EXTT9=
EXTT10=
EXTT11=
EXTT12=
PLAYORDER=
